<svg width="581" height="636" viewBox="0 0 581 636" fill="none" xmlns="http://www.w3.org/2000/svg">
<path d="M53.0399 430.367L259.385 310.005C271.62 302.869 279.168 289.795 279.231 275.631L280.294 36.7502C280.414 9.89005 251.292 -6.92365 228.09 6.61001C217.456 12.8131 210.902 24.1847 210.867 36.496L210.361 212.597L60.7308 126.208C47.6097 118.633 31.3348 119.121 18.6912 127.469C8.18442 134.406 1.55698 145.885 0.80262 158.452C-0.105144 173.576 7.60971 187.915 20.7308 195.49L170.361 281.879L18.106 370.368C7.46172 376.554 0.89031 387.915 0.835489 400.226C0.715889 427.087 29.8381 443.9 53.0399 430.367Z" fill="black"/>
<path d="M527.591 427.515L322.797 309.277C310.366 302.1 302.733 288.812 302.797 274.458L303.863 35.0561C303.982 8.37788 332.877 -8.21904 355.981 5.12021C366.763 11.3447 373.39 22.8616 373.354 35.3106L372.849 211.158L522.927 123.935C534.901 116.976 549.684 116.955 561.679 123.88C573.773 130.862 581.161 143.826 581.005 157.79L580.998 158.417C580.84 172.46 573.28 185.377 561.112 192.391L410.606 279.145L562.591 366.893C573.468 373.173 580.147 384.8 580.091 397.36C579.971 424.234 550.864 440.952 527.591 427.515Z" fill="black"/>
<path d="M515.091 449.156L310.297 330.918C297.866 323.741 282.542 323.775 270.143 331.007L63.3476 451.631C40.303 465.073 40.3772 498.396 63.4814 511.735C74.2626 517.959 87.5501 517.94 98.3134 511.685L250.349 423.324L249.851 596.906C249.811 610.756 257.184 623.569 269.179 630.494C281.273 637.477 296.194 637.394 308.209 630.276L308.748 629.956C320.831 622.798 328.238 609.792 328.228 595.748L328.106 422.029L480.091 509.777C490.968 516.057 504.377 516.028 515.226 509.699C538.439 496.159 538.364 462.593 515.091 449.156Z" fill="black"/>
</svg>
