<svg width="1853" height="754" viewBox="0 0 1853 754" fill="none" xmlns="http://www.w3.org/2000/svg">
<path d="M106.912 677.081V650.873C106.912 648.771 106.518 647.392 105.73 646.735C105.073 645.946 103.628 645.552 101.395 645.552H70.2613V629H108.292C115.78 629 121.231 630.708 124.647 634.123C128.062 637.539 129.77 642.334 129.77 648.508V677.081H106.912ZM106.912 731.467V673.14H129.77V733.832C129.77 740.006 128.062 744.801 124.647 748.216C121.231 751.632 115.78 753.34 108.292 753.34H70.2613V736.787H101.395C103.628 736.787 105.073 736.459 105.73 735.802C106.518 735.014 106.912 733.569 106.912 731.467ZM61 629H83.6606V753.34H61V629Z" fill="black"/>
<path d="M149.138 629H171.798V753.34H149.138V629Z" fill="black"/>
<path d="M213.702 650.873V731.664C213.702 733.635 214.096 735.014 214.884 735.802C215.673 736.59 217.118 736.984 219.219 736.984H224.54V753.537H212.323C204.835 753.537 199.383 751.829 195.968 748.413C192.552 744.998 190.844 740.203 190.844 734.029V648.508C190.844 642.334 192.552 637.539 195.968 634.123C199.383 630.708 204.835 629 212.323 629H225.525V645.552H219.219C217.118 645.552 215.673 645.946 214.884 646.735C214.096 647.392 213.702 648.771 213.702 650.873ZM256.856 688.116V704.077H224.146V688.116H256.856ZM233.998 667.228V650.873C233.998 648.771 233.604 647.392 232.816 646.735C232.159 645.946 230.714 645.552 228.481 645.552H222.372V629H235.377C242.997 629 248.448 630.708 251.733 634.123C255.148 637.539 256.856 642.334 256.856 648.508V667.228H233.998ZM233.998 731.664V699.15H256.856V734.029C256.856 740.203 255.148 744.998 251.733 748.413C248.448 751.829 242.997 753.537 235.377 753.537H222.766V736.984H228.481C230.714 736.984 232.159 736.59 232.816 735.802C233.604 735.014 233.998 733.635 233.998 731.664Z" fill="black"/>
<path d="M274.987 629H297.648V753.34H274.987V629Z" fill="black"/>
<path d="M330.882 634.32H353.542V753.34H330.882V634.32ZM375.415 629V646.341H309.206V629H375.415Z" fill="black"/>
<path d="M442.156 710.382V727.526H395.258V710.382H442.156ZM459.693 753.34H436.835L418.116 650.873L400.578 753.34H377.918L402.943 629H433.486L459.693 753.34Z" fill="black"/>
<path d="M470.662 629H493.322V753.34H470.662V629ZM480.317 753.34V735.999H526.426V753.34H480.317Z" fill="black"/>
<path d="M568.224 629H591.082V753.34H568.224V629ZM621.624 680.825V698.362H579.653V680.825H621.624ZM627.338 629V646.341H578.47V629H627.338ZM628.915 735.999V753.34H578.47V735.999H628.915Z" fill="black"/>
<path d="M685.473 689.889L713.848 753.34H688.625L673.058 709.791L657.295 753.34H633.058L660.447 689.889L634.437 629H659.856L673.058 669.987L686.261 629H710.695L685.473 689.889Z" fill="black"/>
<path d="M768.433 684.963V651.661C768.433 649.559 768.039 648.18 767.251 647.523C766.594 646.735 765.149 646.341 762.916 646.341H729.023V629H769.615C777.235 629 782.686 630.708 785.971 634.123C789.386 637.539 791.094 642.334 791.094 648.508V688.116C791.094 694.29 789.386 699.085 785.971 702.5C782.686 705.916 777.235 707.624 769.615 707.624H733.556V690.283H762.916C765.149 690.283 766.594 689.889 767.251 689.101C768.039 688.313 768.433 686.933 768.433 684.963ZM723.9 629H746.561V753.34H723.9V629Z" fill="black"/>
<path d="M805.683 629H828.541V753.34H805.683V629ZM859.083 680.825V698.362H817.112V680.825H859.083ZM864.798 629V646.341H815.93V629H864.798ZM866.374 735.999V753.34H815.93V735.999H866.374Z" fill="black"/>
<path d="M923.917 682.795V651.661C923.917 649.559 923.523 648.18 922.735 647.523C922.078 646.735 920.633 646.341 918.4 646.341H884.507V629H925.099C932.719 629 938.17 630.708 941.454 634.123C944.87 637.539 946.578 642.334 946.578 648.508V685.357C946.578 691.531 944.87 696.326 941.454 699.742C938.17 703.157 932.719 704.865 925.099 704.865H889.039V688.116H918.4C920.633 688.116 922.078 687.721 922.735 686.933C923.523 686.145 923.917 684.766 923.917 682.795ZM879.384 629H902.045V753.34H879.384V629ZM905.986 695.998H928.646L952.883 753.34H928.449L905.986 695.998Z" fill="black"/>
<path d="M965.236 629H987.896V753.34H965.236V629Z" fill="black"/>
<path d="M1007.93 629H1030.79V753.34H1007.93V629ZM1061.33 680.825V698.362H1019.36V680.825H1061.33ZM1067.04 629V646.341H1018.17V629H1067.04ZM1068.62 735.999V753.34H1018.17V735.999H1068.62Z" fill="black"/>
<path d="M1129.71 629H1150.4V753.34H1129.12L1102.52 670.972V753.34H1081.63V629H1103.5L1129.71 710.185V629Z" fill="black"/>
<path d="M1191.44 650.873V731.664C1191.44 733.635 1191.84 735.014 1192.62 735.802C1193.41 736.59 1194.86 736.984 1196.96 736.984H1202.48V753.537H1190.06C1182.57 753.537 1177.12 751.829 1173.71 748.413C1170.29 744.998 1168.58 740.203 1168.58 734.029V648.508C1168.58 642.334 1170.29 637.539 1173.71 634.123C1177.12 630.708 1182.57 629 1190.06 629H1203.26V645.552H1196.96C1194.86 645.552 1193.41 645.946 1192.62 646.735C1191.84 647.392 1191.44 648.771 1191.44 650.873ZM1211.74 670.184V650.873C1211.74 648.771 1211.34 647.392 1210.56 646.735C1209.9 645.946 1208.45 645.552 1206.22 645.552H1200.11V629H1213.12C1220.6 629 1226.06 630.708 1229.47 634.123C1232.89 637.539 1234.6 642.334 1234.6 648.508V670.184H1211.74ZM1211.74 731.664V712.747H1234.6V734.029C1234.6 740.203 1232.89 744.998 1229.47 748.413C1226.06 751.829 1220.6 753.537 1213.12 753.537H1200.11V736.984H1206.22C1208.45 736.984 1209.9 736.59 1210.56 735.802C1211.34 735.014 1211.74 733.635 1211.74 731.664Z" fill="black"/>
<path d="M1250.58 629H1273.44V753.34H1250.58V629ZM1303.98 680.825V698.362H1262.01V680.825H1303.98ZM1309.7 629V646.341H1260.83V629H1309.7ZM1311.27 735.999V753.34H1260.83V735.999H1311.27Z" fill="black"/>
<path d="M1402.93 677.081V650.873C1402.93 648.771 1402.54 647.392 1401.75 646.735C1401.09 645.946 1399.65 645.552 1397.41 645.552H1366.28V629H1404.31C1411.8 629 1417.25 630.708 1420.67 634.123C1424.08 637.539 1425.79 642.334 1425.79 648.508V677.081H1402.93ZM1402.93 731.467V673.14H1425.79V733.832C1425.79 740.006 1424.08 744.801 1420.67 748.216C1417.25 751.632 1411.8 753.34 1404.31 753.34H1366.28V736.787H1397.41C1399.65 736.787 1401.09 736.459 1401.75 735.802C1402.54 735.014 1402.93 733.569 1402.93 731.467ZM1357.02 629H1379.68V753.34H1357.02V629Z" fill="black"/>
<path d="M1443.98 629H1466.83V753.34H1443.98V629ZM1497.38 680.825V698.362H1455.4V680.825H1497.38ZM1503.09 629V646.341H1454.22V629H1503.09ZM1504.67 735.999V753.34H1454.22V735.999H1504.67Z" fill="black"/>
<path d="M1557.09 730.679V704.077C1557.09 701.975 1556.69 700.596 1555.9 699.939C1555.12 699.15 1553.67 698.756 1551.57 698.756H1535.61C1528.25 698.756 1523 697.049 1519.84 693.633C1516.82 690.086 1515.31 685.225 1515.31 679.051V648.508C1515.31 642.334 1516.95 637.539 1520.24 634.123C1523.52 630.708 1528.97 629 1536.59 629H1558.27C1565.76 629 1571.14 630.708 1574.43 634.123C1577.84 637.539 1579.55 642.334 1579.55 648.508V665.849H1556.69V651.661C1556.69 649.559 1556.3 648.18 1555.51 647.523C1554.85 646.735 1553.41 646.341 1551.17 646.341H1543.69C1541.45 646.341 1539.94 646.735 1539.15 647.523C1538.37 648.18 1537.97 649.559 1537.97 651.661V676.687C1537.97 678.657 1538.37 680.036 1539.15 680.825C1539.94 681.613 1541.45 682.007 1543.69 682.007H1559.25C1566.74 682.007 1572.06 683.715 1575.21 687.13C1578.37 690.415 1579.94 695.144 1579.94 701.318V733.832C1579.94 740.006 1578.24 744.801 1574.82 748.216C1571.54 751.632 1566.08 753.34 1558.47 753.34H1537.18C1529.56 753.34 1524.05 751.632 1520.63 748.216C1517.35 744.801 1515.71 740.006 1515.71 733.832V716.688H1538.37V730.679C1538.37 732.649 1538.76 734.029 1539.55 734.817C1540.34 735.605 1541.85 735.999 1544.08 735.999H1551.57C1553.67 735.999 1555.12 735.605 1555.9 734.817C1556.69 734.029 1557.09 732.649 1557.09 730.679Z" fill="black"/>
<path d="M1597.56 629H1620.22V753.34H1597.56V629Z" fill="black"/>
<path d="M1662.13 650.873V731.664C1662.13 733.635 1662.52 735.014 1663.31 735.802C1664.1 736.59 1665.54 736.984 1667.64 736.984H1672.96V753.537H1660.75C1653.26 753.537 1647.81 751.829 1644.39 748.413C1640.98 744.998 1639.27 740.203 1639.27 734.029V648.508C1639.27 642.334 1640.98 637.539 1644.39 634.123C1647.81 630.708 1653.26 629 1660.75 629H1673.95V645.552H1667.64C1665.54 645.552 1664.1 645.946 1663.31 646.735C1662.52 647.392 1662.13 648.771 1662.13 650.873ZM1705.28 688.116V704.077H1672.57V688.116H1705.28ZM1682.42 667.228V650.873C1682.42 648.771 1682.03 647.392 1681.24 646.735C1680.58 645.946 1679.14 645.552 1676.91 645.552H1670.8V629H1683.8C1691.42 629 1696.87 630.708 1700.16 634.123C1703.57 637.539 1705.28 642.334 1705.28 648.508V667.228H1682.42ZM1682.42 731.664V699.15H1705.28V734.029C1705.28 740.203 1703.57 744.998 1700.16 748.413C1696.87 751.829 1691.42 753.537 1683.8 753.537H1671.19V736.984H1676.91C1679.14 736.984 1680.58 736.59 1681.24 735.802C1682.03 735.014 1682.42 733.635 1682.42 731.664Z" fill="black"/>
<path d="M1770.31 629H1791V753.34H1769.72L1743.12 670.972V753.34H1722.23V629H1744.1L1770.31 710.185V629Z" fill="black"/>
<path d="M1411.49 3.51472L1168.5 246.498C1163.81 251.191 1163.82 258.802 1168.52 263.485L1411.49 505.502C1413.74 507.742 1416.78 509 1419.96 509H1592.06C1595.23 509 1598.26 507.752 1600.51 505.527L1844.91 263.51C1849.64 258.821 1849.65 251.172 1844.92 246.473L1600.51 3.48987C1598.26 1.25464 1595.22 0 1592.05 0H1419.97C1416.79 0 1413.74 1.26428 1411.49 3.51472Z" fill="black"/>
<rect x="1183" y="254.748" width="344.712" height="344.712" rx="8" transform="rotate(-45 1183 254.748)" fill="#5BFD30"/>
<path d="M0 324.029V12C0 5.37258 5.37258 0 12 0H168C174.627 0 180 5.37258 180 12V317C180 323.627 185.373 329 192 329H313C319.627 329 325 323.627 325 317V12C325 5.37258 330.373 0 337 0H493C499.627 0 505 5.3726 505 12V497C505 503.627 499.627 509 493 509H184.971C181.788 509 178.736 507.736 176.485 505.485L3.51472 332.515C1.26428 330.264 0 327.212 0 324.029Z" fill="black"/>
<path d="M626 122.184V12C626 5.37258 631.373 0 638 0H749.024C752.21 0 755.265 1.2667 757.516 3.52097L872.542 118.717C877.216 123.398 884.798 123.413 889.491 118.75L1005.49 3.48774C1007.74 1.25381 1010.78 0 1013.95 0H1124C1130.63 0 1136 5.37259 1136 12V122.212C1136 125.397 1134.73 128.452 1132.48 130.703L1017.46 245.548C1012.79 250.22 1012.77 257.797 1017.43 262.491L1132.52 378.491C1134.75 380.739 1136 383.777 1136 386.943V497C1136 503.627 1130.63 509 1124 509H1013.97C1010.79 509 1007.74 507.736 1005.49 505.485L889.519 389.519C884.819 384.819 877.196 384.834 872.515 389.552L757.52 505.452C755.267 507.723 752.201 509 749.002 509H638C631.373 509 626 503.627 626 497V386.971C626 383.788 627.264 380.736 629.515 378.485L745.475 262.525C750.177 257.823 750.159 250.195 745.435 245.515L629.554 130.709C627.28 128.455 626 125.386 626 122.184Z" fill="black"/>
</svg>
